# xmcd
#
# Track frame offsets:
#	182
#	13605
#	30197
#	51767
#	68732
#	80837
#	103352
#	119167
#	134257
#	146805
#	176545
#	204545
#	214902
#	228302
#	244072
#	267065
#	279057
#	296585
#	305745
#
# Disc length: 4339 seconds
#
# Revision: 5
# Processed by: cddbd v1.5.2PL0 Copyright (c) Steve Scherf et al.
# Submitted via: audiograbber 1.83.01
#
DISCID=1e10f113
DTITLE=Diana Ross - Stolen Moments - Diana Ross Live
DYEAR=1993
DGENRE=Jazz
TTITLE0=Fine And Mellow (Live 04.12.1992 at the Ritz Theatre, New York)
TTITLE1=Them There Eyes (Live 04.12.1992 at the Ritz Theatre, New York)
TTITLE2=Don't Explain (Live 04.12.1992 at the Ritz Theatre, New York)
TTITLE3=What A Little Moonlight Can Do (Live 04.12.1992 at the Ritz Theatre, Ne
TTITLE3=w York)
TTITLE4=Mean To Me (Live 04.12.1992 at the Ritz Theatre, New York)
TTITLE5=Lover Man (Oh Where Can You Be) (Live 04.12.1992 at the Ritz Theatre, N
TTITLE5=ew York)
TTITLE6=Gimme A Pigfoot And A Bottle Of Beer (Live 04.12.1992 at the Ritz Theat
TTITLE6=re, New York)
TTITLE7=Little Girl Blue (Live 04.12.1992 at the Ritz Theatre, New York)
TTITLE8=There's A Small Hotel (Live 04.12.1992 at the Ritz Theatre, New York)
TTITLE9=I Cried For You (Live 04.12.1992 at the Ritz Theatre, New York)
TTITLE10=God Bless The Child (Live 04.12.1992 at the Ritz Theatre, New York)
TTITLE11=Love Is Here To Stay (Live 04.12.1992 at the Ritz Theatre, New York)
TTITLE12=You've Changed (Live 04.12.1992 at the Ritz Theatre, New York)
TTITLE13=Strange Fruit (Live 04.12.1992 at the Ritz Theatre, New York)
TTITLE14=Good Morning Heartache (Live 04.12.1992 at the Ritz Theatre, New York)
TTITLE15=Ain't Nobody's Bizness If I Do (Live 04.12.1992 at the Ritz Theatre, N
TTITLE15=ew York)
TTITLE16=My Man (Live 04.12.1992 at the Ritz Theatre, New York)
TTITLE17=Fine And Mellow (Reprise) (Live 04.12.1992 at the Ritz Theatre, New Yo
TTITLE17=rk)
TTITLE18=Where Did We Go Wrong
EXTD=MARO\n
EXTT0=
EXTT1=
EXTT2=
EXTT3=
EXTT4=
EXTT5=
EXTT6=
EXTT7=
EXTT8=
EXTT9=
EXTT10=
EXTT11=
EXTT12=
EXTT13=
EXTT14=
EXTT15=
EXTT16=
EXTT17=
EXTT18=
PLAYORDER=
